<svg xmlns="http://www.w3.org/2000/svg" xmlns:xlink="http://www.w3.org/1999/xlink" width="500" zoomAndPan="magnify" viewBox="0 0 375 374.999991" height="500" preserveAspectRatio="xMidYMid meet" version="1.0"><defs><g/><clipPath id="4e88b485ee"><path d="M 160 105 L 256 105 L 256 187.5 L 160 187.5 Z M 160 105 " clip-rule="nonzero"/></clipPath></defs><rect x="-37.5" width="450" fill="#ffffff" y="-37.499999" height="449.999989" fill-opacity="1"/><rect x="-37.5" width="450" fill="#ffffff" y="-37.499999" height="449.999989" fill-opacity="1"/><rect x="-37.5" width="450" fill="#d9d9d9" y="-37.499999" height="449.999989" fill-opacity="1"/><g clip-path="url(#4e88b485ee)"><path fill="#000000" d="M 208.082031 187.5 C 181.675781 187.5 160.195312 165.835938 160.195312 139.191406 C 160.195312 126.5625 164.980469 114.644531 173.664062 105.625 C 174.191406 105.066406 175.074219 105.054688 175.632812 105.582031 C 176.1875 106.109375 176.203125 107.003906 175.671875 107.546875 C 167.492188 116.050781 162.984375 127.285156 162.984375 139.175781 C 162.984375 164.277344 183.210938 184.6875 208.066406 184.6875 C 232.925781 184.6875 253.164062 164.265625 253.164062 139.175781 C 253.164062 138.410156 253.792969 137.785156 254.5625 137.785156 C 255.328125 137.785156 255.957031 138.410156 255.957031 139.175781 C 255.96875 165.835938 234.488281 187.5 208.082031 187.5 Z M 208.082031 187.5 " fill-opacity="1" fill-rule="nonzero"/></g><path fill="#000000" d="M 240.953125 107.433594 C 240.589844 107.433594 240.226562 107.292969 239.960938 107.015625 C 231.460938 98.425781 220.140625 93.691406 208.082031 93.691406 C 201.296875 93.691406 194.78125 95.183594 188.695312 98.105469 C 187.996094 98.441406 187.160156 98.148438 186.824219 97.453125 C 186.488281 96.753906 186.78125 95.921875 187.480469 95.585938 C 193.941406 92.46875 200.878906 90.894531 208.082031 90.894531 C 220.894531 90.894531 232.914062 95.921875 241.941406 105.054688 C 242.488281 105.597656 242.472656 106.488281 241.929688 107.015625 C 241.664062 107.308594 241.300781 107.433594 240.953125 107.433594 Z M 240.953125 107.433594 " fill-opacity="1" fill-rule="nonzero"/><path fill="#000000" d="M 254.5625 140.597656 L 208.082031 140.597656 C 207.316406 140.597656 206.6875 139.96875 206.6875 139.203125 C 206.6875 138.4375 207.316406 137.8125 208.082031 137.8125 L 254.5625 137.8125 C 255.328125 137.8125 255.957031 138.4375 255.957031 139.203125 C 255.957031 139.96875 255.328125 140.597656 254.5625 140.597656 Z M 254.5625 140.597656 " fill-opacity="1" fill-rule="nonzero"/><path fill="#000000" d="M 207.957031 140.472656 C 207.425781 140.472656 206.9375 140.179688 206.699219 139.664062 L 165.859375 52.886719 L 125.035156 139.664062 C 124.699219 140.359375 123.875 140.664062 123.179688 140.332031 C 122.480469 140.011719 122.171875 139.175781 122.507812 138.480469 L 164.605469 49.003906 C 165.066406 48.027344 166.671875 48.027344 167.132812 49.003906 L 209.226562 138.480469 C 209.5625 139.175781 209.253906 140.011719 208.558594 140.332031 C 208.359375 140.429688 208.152344 140.472656 207.957031 140.472656 Z M 207.957031 140.472656 " fill-opacity="1" fill-rule="nonzero"/><g fill="#000000" fill-opacity="1"><g transform="translate(41.506009, 233.749057)"><g><path d="M 18.34375 -10 C 18.34375 -6.757812 17.460938 -4.28125 15.703125 -2.5625 C 13.953125 -0.851562 11.425781 0 8.125 0 L 2.703125 0 L 2.703125 -19.609375 L 8.703125 -19.609375 C 11.753906 -19.609375 14.125 -18.765625 15.8125 -17.078125 C 17.5 -15.390625 18.34375 -13.03125 18.34375 -10 Z M 15.9375 -9.90625 C 15.9375 -12.46875 15.289062 -14.394531 14 -15.6875 C 12.71875 -16.988281 10.8125 -17.640625 8.28125 -17.640625 L 4.96875 -17.640625 L 4.96875 -1.96875 L 7.75 -1.96875 C 10.46875 -1.96875 12.507812 -2.632812 13.875 -3.96875 C 15.25 -5.3125 15.9375 -7.289062 15.9375 -9.90625 Z M 15.9375 -9.90625 "/></g></g></g><g fill="#000000" fill-opacity="1"><g transform="translate(70.888192, 233.749057)"><g><path d="M 4.96875 -8.15625 L 4.96875 0 L 2.703125 0 L 2.703125 -19.609375 L 8.078125 -19.609375 C 10.484375 -19.609375 12.257812 -19.144531 13.40625 -18.21875 C 14.550781 -17.300781 15.125 -15.914062 15.125 -14.0625 C 15.125 -11.476562 13.8125 -9.726562 11.1875 -8.8125 L 16.515625 0 L 13.8125 0 L 9.0625 -8.15625 Z M 4.96875 -10.109375 L 8.09375 -10.109375 C 9.707031 -10.109375 10.890625 -10.425781 11.640625 -11.0625 C 12.390625 -11.707031 12.765625 -12.671875 12.765625 -13.953125 C 12.765625 -15.242188 12.378906 -16.175781 11.609375 -16.75 C 10.847656 -17.320312 9.625 -17.609375 7.9375 -17.609375 L 4.96875 -17.609375 Z M 4.96875 -10.109375 "/></g></g></g><g fill="#000000" fill-opacity="1"><g transform="translate(97.227037, 233.749057)"><g><path d="M 13.625 0 L 2.703125 0 L 2.703125 -19.609375 L 13.625 -19.609375 L 13.625 -17.578125 L 4.96875 -17.578125 L 4.96875 -11.265625 L 13.109375 -11.265625 L 13.109375 -9.25 L 4.96875 -9.25 L 4.96875 -2.03125 L 13.625 -2.03125 Z M 13.625 0 "/></g></g></g><g fill="#000000" fill-opacity="1"><g transform="translate(121.86323, 233.749057)"><g><path d="M 15.015625 0 L 12.578125 -6.234375 L 4.71875 -6.234375 L 2.3125 0 L 0 0 L 7.75 -19.6875 L 9.671875 -19.6875 L 17.375 0 Z M 11.875 -8.28125 L 9.59375 -14.359375 C 9.289062 -15.128906 8.984375 -16.070312 8.671875 -17.1875 C 8.472656 -16.332031 8.191406 -15.390625 7.828125 -14.359375 L 5.53125 -8.28125 Z M 11.875 -8.28125 "/></g></g></g><g fill="#000000" fill-opacity="1"><g transform="translate(148.604277, 233.749057)"><g><path d="M 11.375 0 L 4.71875 -17.375 L 4.609375 -17.375 C 4.734375 -16 4.796875 -14.363281 4.796875 -12.46875 L 4.796875 0 L 2.703125 0 L 2.703125 -19.609375 L 6.125 -19.609375 L 12.34375 -3.4375 L 12.453125 -3.4375 L 18.703125 -19.609375 L 22.109375 -19.609375 L 22.109375 0 L 19.84375 0 L 19.84375 -12.640625 C 19.84375 -14.085938 19.90625 -15.660156 20.03125 -17.359375 L 19.921875 -17.359375 L 13.21875 0 Z M 11.375 0 "/></g></g></g><g fill="#000000" fill-opacity="1"><g transform="translate(182.759258, 233.749057)"><g/></g></g><g fill="#000000" fill-opacity="1"><g transform="translate(199.257552, 233.749057)"><g><path d="M 17.578125 0 L 15.296875 0 L 15.296875 -9.234375 L 4.96875 -9.234375 L 4.96875 0 L 2.703125 0 L 2.703125 -19.609375 L 4.96875 -19.609375 L 4.96875 -11.265625 L 15.296875 -11.265625 L 15.296875 -19.609375 L 17.578125 -19.609375 Z M 17.578125 0 "/></g></g></g><g fill="#000000" fill-opacity="1"><g transform="translate(228.88105, 233.749057)"><g><path d="M 19.71875 -9.828125 C 19.71875 -6.691406 18.921875 -4.222656 17.328125 -2.421875 C 15.742188 -0.628906 13.539062 0.265625 10.71875 0.265625 C 7.832031 0.265625 5.601562 -0.613281 4.03125 -2.375 C 2.457031 -4.144531 1.671875 -6.640625 1.671875 -9.859375 C 1.671875 -13.046875 2.457031 -15.519531 4.03125 -17.28125 C 5.601562 -19.039062 7.84375 -19.921875 10.75 -19.921875 C 13.5625 -19.921875 15.757812 -19.023438 17.34375 -17.234375 C 18.925781 -15.441406 19.71875 -12.972656 19.71875 -9.828125 Z M 4.09375 -9.828125 C 4.09375 -7.171875 4.65625 -5.15625 5.78125 -3.78125 C 6.914062 -2.414062 8.5625 -1.734375 10.71875 -1.734375 C 12.882812 -1.734375 14.519531 -2.414062 15.625 -3.78125 C 16.738281 -5.144531 17.296875 -7.160156 17.296875 -9.828125 C 17.296875 -12.460938 16.742188 -14.460938 15.640625 -15.828125 C 14.535156 -17.191406 12.90625 -17.875 10.75 -17.875 C 8.570312 -17.875 6.914062 -17.1875 5.78125 -15.8125 C 4.65625 -14.445312 4.09375 -12.453125 4.09375 -9.828125 Z M 4.09375 -9.828125 "/></g></g></g><g fill="#000000" fill-opacity="1"><g transform="translate(259.630728, 233.749057)"><g><path d="M 11.375 0 L 4.71875 -17.375 L 4.609375 -17.375 C 4.734375 -16 4.796875 -14.363281 4.796875 -12.46875 L 4.796875 0 L 2.703125 0 L 2.703125 -19.609375 L 6.125 -19.609375 L 12.34375 -3.4375 L 12.453125 -3.4375 L 18.703125 -19.609375 L 22.109375 -19.609375 L 22.109375 0 L 19.84375 0 L 19.84375 -12.640625 C 19.84375 -14.085938 19.90625 -15.660156 20.03125 -17.359375 L 19.921875 -17.359375 L 13.21875 0 Z M 11.375 0 "/></g></g></g><g fill="#000000" fill-opacity="1"><g transform="translate(293.785709, 233.749057)"><g><path d="M 13.625 0 L 2.703125 0 L 2.703125 -19.609375 L 13.625 -19.609375 L 13.625 -17.578125 L 4.96875 -17.578125 L 4.96875 -11.265625 L 13.109375 -11.265625 L 13.109375 -9.25 L 4.96875 -9.25 L 4.96875 -2.03125 L 13.625 -2.03125 Z M 13.625 0 "/></g></g></g><g fill="#000000" fill-opacity="1"><g transform="translate(318.421908, 233.749057)"><g><path d="M 13.765625 -5.21875 C 13.765625 -3.488281 13.132812 -2.140625 11.875 -1.171875 C 10.625 -0.210938 8.925781 0.265625 6.78125 0.265625 C 4.457031 0.265625 2.671875 -0.03125 1.421875 -0.625 L 1.421875 -2.828125 C 2.222656 -2.492188 3.097656 -2.226562 4.046875 -2.03125 C 4.992188 -1.832031 5.9375 -1.734375 6.875 -1.734375 C 8.382812 -1.734375 9.523438 -2.019531 10.296875 -2.59375 C 11.066406 -3.164062 11.453125 -3.96875 11.453125 -5 C 11.453125 -5.675781 11.316406 -6.234375 11.046875 -6.671875 C 10.773438 -7.109375 10.316406 -7.507812 9.671875 -7.875 C 9.035156 -8.238281 8.066406 -8.65625 6.765625 -9.125 C 4.941406 -9.769531 3.632812 -10.539062 2.84375 -11.4375 C 2.0625 -12.332031 1.671875 -13.5 1.671875 -14.9375 C 1.671875 -16.445312 2.238281 -17.648438 3.375 -18.546875 C 4.507812 -19.441406 6.015625 -19.890625 7.890625 -19.890625 C 9.835938 -19.890625 11.628906 -19.53125 13.265625 -18.8125 L 12.546875 -16.828125 C 10.929688 -17.515625 9.359375 -17.859375 7.828125 -17.859375 C 6.617188 -17.859375 5.675781 -17.597656 5 -17.078125 C 4.320312 -16.554688 3.984375 -15.835938 3.984375 -14.921875 C 3.984375 -14.234375 4.109375 -13.671875 4.359375 -13.234375 C 4.609375 -12.804688 5.03125 -12.410156 5.625 -12.046875 C 6.21875 -11.691406 7.128906 -11.289062 8.359375 -10.84375 C 10.410156 -10.113281 11.820312 -9.328125 12.59375 -8.484375 C 13.375 -7.648438 13.765625 -6.5625 13.765625 -5.21875 Z M 13.765625 -5.21875 "/></g></g></g><g fill="#000000" fill-opacity="1"><g transform="translate(54.881539, 276.076124)"><g><path d="M 10.703125 0 L 9.3125 0 L 9.3125 -5.609375 L 3.03125 -5.609375 L 3.03125 0 L 1.640625 0 L 1.640625 -11.9375 L 3.03125 -11.9375 L 3.03125 -6.859375 L 9.3125 -6.859375 L 9.3125 -11.9375 L 10.703125 -11.9375 Z M 10.703125 0 "/></g></g></g><g fill="#000000" fill-opacity="1"><g transform="translate(78.847958, 276.076124)"><g><path d="M 12 -5.984375 C 12 -4.078125 11.515625 -2.578125 10.546875 -1.484375 C 9.585938 -0.390625 8.242188 0.15625 6.515625 0.15625 C 4.765625 0.15625 3.410156 -0.378906 2.453125 -1.453125 C 1.492188 -2.523438 1.015625 -4.039062 1.015625 -6 C 1.015625 -7.945312 1.492188 -9.453125 2.453125 -10.515625 C 3.410156 -11.585938 4.769531 -12.125 6.53125 -12.125 C 8.25 -12.125 9.585938 -11.578125 10.546875 -10.484375 C 11.515625 -9.398438 12 -7.898438 12 -5.984375 Z M 2.484375 -5.984375 C 2.484375 -4.367188 2.828125 -3.140625 3.515625 -2.296875 C 4.210938 -1.460938 5.210938 -1.046875 6.515625 -1.046875 C 7.835938 -1.046875 8.835938 -1.460938 9.515625 -2.296875 C 10.191406 -3.128906 10.53125 -4.359375 10.53125 -5.984375 C 10.53125 -7.585938 10.191406 -8.800781 9.515625 -9.625 C 8.847656 -10.457031 7.851562 -10.875 6.53125 -10.875 C 5.21875 -10.875 4.210938 -10.457031 3.515625 -9.625 C 2.828125 -8.789062 2.484375 -7.578125 2.484375 -5.984375 Z M 2.484375 -5.984375 "/></g></g></g><g fill="#000000" fill-opacity="1"><g transform="translate(103.499786, 276.076124)"><g><path d="M 10.65625 -11.9375 L 10.65625 -4.21875 C 10.65625 -2.851562 10.242188 -1.78125 9.421875 -1 C 8.597656 -0.226562 7.46875 0.15625 6.03125 0.15625 C 4.59375 0.15625 3.476562 -0.234375 2.6875 -1.015625 C 1.90625 -1.796875 1.515625 -2.875 1.515625 -4.25 L 1.515625 -11.9375 L 2.90625 -11.9375 L 2.90625 -4.140625 C 2.90625 -3.148438 3.175781 -2.382812 3.71875 -1.84375 C 4.257812 -1.3125 5.0625 -1.046875 6.125 -1.046875 C 7.132812 -1.046875 7.910156 -1.3125 8.453125 -1.84375 C 8.992188 -2.382812 9.265625 -3.15625 9.265625 -4.15625 L 9.265625 -11.9375 Z M 10.65625 -11.9375 "/></g></g></g><g fill="#000000" fill-opacity="1"><g transform="translate(127.303009, 276.076124)"><g><path d="M 8.375 -3.171875 C 8.375 -2.117188 7.992188 -1.300781 7.234375 -0.71875 C 6.472656 -0.132812 5.4375 0.15625 4.125 0.15625 C 2.71875 0.15625 1.628906 -0.0234375 0.859375 -0.390625 L 0.859375 -1.71875 C 1.347656 -1.507812 1.878906 -1.34375 2.453125 -1.21875 C 3.035156 -1.101562 3.613281 -1.046875 4.1875 -1.046875 C 5.101562 -1.046875 5.796875 -1.222656 6.265625 -1.578125 C 6.734375 -1.929688 6.96875 -2.421875 6.96875 -3.046875 C 6.96875 -3.460938 6.882812 -3.800781 6.71875 -4.0625 C 6.550781 -4.320312 6.273438 -4.5625 5.890625 -4.78125 C 5.503906 -5.007812 4.910156 -5.265625 4.109375 -5.546875 C 3.003906 -5.941406 2.210938 -6.410156 1.734375 -6.953125 C 1.253906 -7.503906 1.015625 -8.21875 1.015625 -9.09375 C 1.015625 -10.007812 1.359375 -10.738281 2.046875 -11.28125 C 2.742188 -11.832031 3.660156 -12.109375 4.796875 -12.109375 C 5.984375 -12.109375 7.078125 -11.890625 8.078125 -11.453125 L 7.640625 -10.25 C 6.648438 -10.65625 5.691406 -10.859375 4.765625 -10.859375 C 4.035156 -10.859375 3.460938 -10.703125 3.046875 -10.390625 C 2.628906 -10.078125 2.421875 -9.640625 2.421875 -9.078125 C 2.421875 -8.660156 2.492188 -8.320312 2.640625 -8.0625 C 2.796875 -7.800781 3.054688 -7.554688 3.421875 -7.328125 C 3.785156 -7.109375 4.335938 -6.867188 5.078125 -6.609375 C 6.335938 -6.160156 7.203125 -5.679688 7.671875 -5.171875 C 8.140625 -4.660156 8.375 -3.992188 8.375 -3.171875 Z M 8.375 -3.171875 "/></g></g></g><g fill="#000000" fill-opacity="1"><g transform="translate(148.111651, 276.076124)"><g><path d="M 8.296875 0 L 1.640625 0 L 1.640625 -11.9375 L 8.296875 -11.9375 L 8.296875 -10.703125 L 3.03125 -10.703125 L 3.03125 -6.859375 L 7.96875 -6.859375 L 7.96875 -5.625 L 3.03125 -5.625 L 3.03125 -1.234375 L 8.296875 -1.234375 Z M 8.296875 0 "/></g></g></g><g fill="#000000" fill-opacity="1"><g transform="translate(169.042688, 276.076124)"><g/></g></g><g fill="#000000" fill-opacity="1"><g transform="translate(185.020825, 276.076124)"><g><path d="M 1.640625 -11.9375 L 5.015625 -11.9375 C 6.597656 -11.9375 7.742188 -11.695312 8.453125 -11.21875 C 9.160156 -10.75 9.515625 -10.003906 9.515625 -8.984375 C 9.515625 -8.273438 9.316406 -7.6875 8.921875 -7.21875 C 8.523438 -6.757812 7.945312 -6.460938 7.1875 -6.328125 L 7.1875 -6.25 C 9 -5.9375 9.90625 -4.984375 9.90625 -3.390625 C 9.90625 -2.328125 9.546875 -1.492188 8.828125 -0.890625 C 8.109375 -0.296875 7.097656 0 5.796875 0 L 1.640625 0 Z M 3.03125 -6.828125 L 5.3125 -6.828125 C 6.289062 -6.828125 6.992188 -6.976562 7.421875 -7.28125 C 7.859375 -7.59375 8.078125 -8.113281 8.078125 -8.84375 C 8.078125 -9.507812 7.835938 -9.988281 7.359375 -10.28125 C 6.878906 -10.582031 6.113281 -10.734375 5.0625 -10.734375 L 3.03125 -10.734375 Z M 3.03125 -5.65625 L 3.03125 -1.1875 L 5.515625 -1.1875 C 6.484375 -1.1875 7.207031 -1.367188 7.6875 -1.734375 C 8.175781 -2.109375 8.421875 -2.695312 8.421875 -3.5 C 8.421875 -4.238281 8.171875 -4.78125 7.671875 -5.125 C 7.179688 -5.476562 6.425781 -5.65625 5.40625 -5.65625 Z M 3.03125 -5.65625 "/></g></g></g><g fill="#000000" fill-opacity="1"><g transform="translate(207.485873, 276.076124)"><g><path d="M 10.65625 -11.9375 L 10.65625 -4.21875 C 10.65625 -2.851562 10.242188 -1.78125 9.421875 -1 C 8.597656 -0.226562 7.46875 0.15625 6.03125 0.15625 C 4.59375 0.15625 3.476562 -0.234375 2.6875 -1.015625 C 1.90625 -1.796875 1.515625 -2.875 1.515625 -4.25 L 1.515625 -11.9375 L 2.90625 -11.9375 L 2.90625 -4.140625 C 2.90625 -3.148438 3.175781 -2.382812 3.71875 -1.84375 C 4.257812 -1.3125 5.0625 -1.046875 6.125 -1.046875 C 7.132812 -1.046875 7.910156 -1.3125 8.453125 -1.84375 C 8.992188 -2.382812 9.265625 -3.15625 9.265625 -4.15625 L 9.265625 -11.9375 Z M 10.65625 -11.9375 "/></g></g></g><g fill="#000000" fill-opacity="1"><g transform="translate(231.289102, 276.076124)"><g><path d="M 1.640625 0 L 1.640625 -11.9375 L 3.03125 -11.9375 L 3.03125 0 Z M 1.640625 0 "/></g></g></g><g fill="#000000" fill-opacity="1"><g transform="translate(247.585453, 276.076124)"><g><path d="M 1.640625 0 L 1.640625 -11.9375 L 3.03125 -11.9375 L 3.03125 -1.25 L 8.296875 -1.25 L 8.296875 0 Z M 1.640625 0 "/></g></g></g><g fill="#000000" fill-opacity="1"><g transform="translate(267.896357, 276.076124)"><g><path d="M 11.171875 -6.078125 C 11.171875 -4.109375 10.632812 -2.601562 9.5625 -1.5625 C 8.488281 -0.519531 6.953125 0 4.953125 0 L 1.640625 0 L 1.640625 -11.9375 L 5.296875 -11.9375 C 7.148438 -11.9375 8.59375 -11.421875 9.625 -10.390625 C 10.65625 -9.359375 11.171875 -7.921875 11.171875 -6.078125 Z M 9.703125 -6.03125 C 9.703125 -7.59375 9.3125 -8.765625 8.53125 -9.546875 C 7.75 -10.335938 6.585938 -10.734375 5.046875 -10.734375 L 3.03125 -10.734375 L 3.03125 -1.203125 L 4.71875 -1.203125 C 6.375 -1.203125 7.617188 -1.609375 8.453125 -2.421875 C 9.285156 -3.234375 9.703125 -4.4375 9.703125 -6.03125 Z M 9.703125 -6.03125 "/></g></g></g><g fill="#000000" fill-opacity="1"><g transform="translate(291.715905, 276.076124)"><g><path d="M 8.296875 0 L 1.640625 0 L 1.640625 -11.9375 L 8.296875 -11.9375 L 8.296875 -10.703125 L 3.03125 -10.703125 L 3.03125 -6.859375 L 7.96875 -6.859375 L 7.96875 -5.625 L 3.03125 -5.625 L 3.03125 -1.234375 L 8.296875 -1.234375 Z M 8.296875 0 "/></g></g></g><g fill="#000000" fill-opacity="1"><g transform="translate(312.646942, 276.076124)"><g><path d="M 3.03125 -4.96875 L 3.03125 0 L 1.640625 0 L 1.640625 -11.9375 L 4.921875 -11.9375 C 6.378906 -11.9375 7.457031 -11.65625 8.15625 -11.09375 C 8.851562 -10.53125 9.203125 -9.6875 9.203125 -8.5625 C 9.203125 -6.988281 8.40625 -5.921875 6.8125 -5.359375 L 10.046875 0 L 8.40625 0 L 5.515625 -4.96875 Z M 3.03125 -6.15625 L 4.9375 -6.15625 C 5.914062 -6.15625 6.628906 -6.347656 7.078125 -6.734375 C 7.535156 -7.128906 7.765625 -7.710938 7.765625 -8.484375 C 7.765625 -9.273438 7.53125 -9.84375 7.0625 -10.1875 C 6.601562 -10.539062 5.859375 -10.71875 4.828125 -10.71875 L 3.03125 -10.71875 Z M 3.03125 -6.15625 "/></g></g></g></svg>